<svg id="Calque_1" data-name="Calque 1" xmlns="http://www.w3.org/2000/svg" width="800" height="800" viewBox="0 0 800 800">
  <defs>
    <style>
      .cls-1 {
        fill: #06222b;
      }

      .cls-2 {
        fill: #ff7f00;
        opacity: 0.7;
      }

      .cls-3 {
        fill: #cc0a30;
      }

      .cls-3, .cls-4 {
        opacity: 0.5;
      }

      .cls-4 {
        fill: #07a891;
      }
    </style>
  </defs>
  <rect class="cls-1" width="800" height="800" rx="400"/>
  <g>
    <polygon class="cls-2" points="400 648.79 600.22 453.39 513.38 303.83 400 648.79"/>
    <polygon class="cls-3" points="448.25 431.68 469.96 188.04 621.93 424.44 448.25 431.68"/>
    <polygon class="cls-2" points="648.47 383.43 655.7 294.18 600.22 207.34 648.47 383.43"/>
    <polygon class="cls-4" points="474.78 180.8 600.22 188.04 636.41 397.91 474.78 180.8"/>
    <polygon class="cls-2" points="455.48 188.04 368.64 248.34 426.54 520.93 455.48 188.04"/>
    <polygon class="cls-3" points="419.3 243.52 332.46 188.04 250.44 499.22 419.3 243.52"/>
    <polygon class="cls-4" points="255.26 513.7 404.82 656.02 467.54 262.82 255.26 513.7"/>
    <polygon class="cls-4" points="322.81 187.41 238.38 175.98 326.62 392.92 322.81 187.41"/>
    <polygon class="cls-3" points="233.55 188.04 144.3 267.64 291.45 397.91 233.55 188.04"/>
    <polygon class="cls-2" points="144.3 289.35 221.49 477.51 294.31 376.76 144.3 289.35"/>
  </g>
</svg>
