<?xml version="1.0" encoding="utf-8"?>
<!-- Generator: Adobe Illustrator 24.1.2, SVG Export Plug-In . SVG Version: 6.00 Build 0)  -->
<svg version="1.1" id="Calque_1" xmlns="http://www.w3.org/2000/svg" xmlns:xlink="http://www.w3.org/1999/xlink" x="0px" y="0px"
	 viewBox="0 0 251 405" style="enable-background:new 0 0 251 405;" xml:space="preserve">
<style type="text/css">
	.st0{fill:#FBA919;}
	.st1{fill:none;stroke:#231F20;stroke-width:8.2085;stroke-miterlimit:10;}
	.st2{fill:none;stroke:#FFFFFF;stroke-width:7.9335;stroke-miterlimit:10;}
	.st3{fill:none;stroke:#FFFFFF;stroke-width:6.411;stroke-miterlimit:10;}
	.st4{fill:none;stroke:#FFFFFF;stroke-width:7;stroke-miterlimit:10;}
	.st5{fill:none;stroke:#FFFFFF;stroke-width:8.021;stroke-miterlimit:10;}
	.st6{fill:none;stroke:#FFFFFF;stroke-width:6.4979;stroke-miterlimit:10;}
	.st7{fill:none;stroke:#FFFFFF;stroke-width:6.7727;stroke-miterlimit:10;}
	.st8{fill:#2782C5;}
	.st9{fill:#FAA81A;}
	.st10{fill:#FFFFFF;}
	.st11{fill:#010101;}
</style>
<rect class="st0" width="251" height="405"/>
<g>
	<g>
		<line class="st1" x1="89.9" y1="43.4" x2="89.5" y2="102"/>
		<line class="st1" x1="83.8" y1="98.5" x2="109.5" y2="98.1"/>
		<line class="st1" x1="77.2" y1="74" x2="117.1" y2="74"/>
		<line class="st1" x1="82.3" y1="48.7" x2="112.4" y2="48.1"/>
		<line class="st1" x1="175.1" y1="45.4" x2="175.1" y2="102.8"/>
		<line class="st1" x1="166.9" y1="70" x2="215" y2="70"/>
		<line class="st1" x1="197.4" y1="38.3" x2="197.4" y2="108.4"/>
		<line class="st1" x1="36.1" y1="50.3" x2="84.3" y2="48.6"/>
		<line class="st1" x1="60.2" y1="42.4" x2="60.2" y2="105.8"/>
		<path class="st1" d="M158,50.3c-53.2-22.3-37.4,80.9,6.1,43.7"/>
	</g>
	<g>
		<line class="st2" x1="45.3" y1="309.7" x2="73.6" y2="309.7"/>
		<g>
			<line class="st3" x1="79.3" y1="314.8" x2="113.7" y2="313.4"/>
			<line class="st4" x1="93.2" y1="306.1" x2="93.2" y2="360.1"/>
			<line class="st2" x1="52.9" y1="306.9" x2="52.5" y2="363.6"/>
			<line class="st2" x1="47.1" y1="360.2" x2="71.8" y2="359.8"/>
			<line class="st2" x1="40.6" y1="336.5" x2="79.2" y2="336.5"/>
			<line class="st5" x1="123.2" y1="312.5" x2="123.2" y2="364.7"/>
			<line class="st5" x1="107.1" y1="332.6" x2="154.1" y2="332.6"/>
			<line class="st5" x1="144.9" y1="301.6" x2="144.9" y2="360.1"/>
			<line class="st6" x1="165.2" y1="309.5" x2="165.2" y2="361.1"/>
			<path class="st7" d="M206.1,314.4c-41.9-15.5-34,59.8,2.5,38.3"/>
		</g>
	</g>
	<g>
		<rect x="42.2" y="120.9" class="st8" width="166.6" height="166.6"/>
		<path class="st9" d="M45.7,235.2c0,0,37.6-81.9,158.6-22.1v70.5H45.7V235.2z"/>
		<g>
			<path class="st10" d="M106.6,244.8c0.7,13.4-6.2,24.7-15.2,25.1c-9.1,0.4-17-10.1-17.6-23.5C73,233,79.9,221.7,89,221.3
				C98,220.9,105.9,231.4,106.6,244.8z"/>
		</g>
		<path class="st11" d="M110,244.7c-0.4-7.2-2.6-13.9-6.3-18.8c-4-5.4-9.3-8.2-14.8-7.9c-4.2,0.2-8.2,2.2-11.4,5.7
			c-4.9,5.4-7.6,14-7.2,23c0.4,7.2,2.6,13.9,6.4,18.8c3.9,5.1,8.9,7.9,14.1,7.9c0.2,0,0.5,0,0.7,0c5.6-0.3,10.5-3.6,14-9.3
			C108.8,258.7,110.4,251.8,110,244.7z M99.7,260.5c-2.3,3.7-5.3,5.9-8.5,6c-0.1,0-0.3,0-0.4,0c-6.9,0-13.1-9.2-13.7-20.3
			c-0.1-1.7,0-3.4,0.1-5c2.1,6.8,8,11.5,14.6,11.2c4.7-0.2,8.8-3,11.3-7C103.4,251.1,102.1,256.4,99.7,260.5z"/>
		<g>
			<path class="st10" d="M162.1,236.1c0.7,13.4-6.2,24.7-15.2,25.1c-9.1,0.4-17-10.1-17.6-23.5c-0.7-13.4,6.2-24.7,15.2-25.1
				C153.6,212.2,161.5,222.7,162.1,236.1z"/>
		</g>
		<path class="st11" d="M165.6,236L165.6,236c-0.4-7.2-2.6-13.9-6.3-18.8c-4-5.4-9.3-8.2-14.9-7.9c-4.2,0.2-8.2,2.2-11.4,5.7
			c-4.9,5.4-7.6,14-7.1,23c0.4,7.2,2.6,13.9,6.4,18.8c3.9,5.1,8.9,7.9,14.1,7.9c0.2,0,0.5,0,0.7,0c5.6-0.3,10.5-3.6,14-9.3
			C164.3,250,165.9,243.1,165.6,236z M155.2,251.8c-2.3,3.7-5.3,5.9-8.5,6c-0.1,0-0.3,0-0.4,0c-6.9,0-13.1-9.1-13.7-20.3
			c0-0.4,0-0.8,0-1.3c2.8,4.6,7.6,7.5,12.8,7.2c6-0.3,10.9-4.6,12.9-10.6c0.2,1.1,0.3,2.2,0.3,3.3
			C159,242.1,157.8,247.6,155.2,251.8z"/>
		<path class="st10" d="M183.6,154.3c-2.8-2.4-6-3.8-9.3-5.1c1.4-3.6,1.7-7.5,0.9-11.3c-0.3-0.9-1.2-1.4-2.2-1.1
			c-0.1,0-0.2,0.1-0.4,0.2c-2.3,1.3-3.6,4.4-5.8,5.4c-3.3,1.6-6.5-3.4-8.8-5c-1.5-1-2.9,0.8-2.4,2.1c0,0.2-0.1,0.3-0.1,0.5l0,0
			c0.1,2.3,1.3,4.1,1.8,6.3c0.9,4.3-2.8,5.2-5.6,7c-1.1,0.7-1.1,2.9,0.4,3.1c3.5,0.6,8.1-0.8,9.3,3.4c0.9,2.9,0.3,6.3,1,9.2
			c0.3,0.9,1.2,1.4,2.2,1.2c0.4-0.1,0.8-0.4,1-0.7c2-3,2.4-6.7,4.1-9.8c2.6-4.8,8.2-2.3,12.6-2.5
			C183.8,157.2,184.8,155.3,183.6,154.3z"/>
		<path class="st11" d="M42.2,120.9v166.6h166.6V120.9H42.2z M201.9,127.8v80.4c-22.8-10.9-44.3-17.5-63.9-19.6
			c-17.4-1.9-33.6-0.2-47.9,4.8c-7.9,2.8-15.3,6.6-22,11.4c-5.4,3.8-10.3,8.3-14.7,13.2c-1.7,1.9-3.1,3.7-4.4,5.4v-95.7H201.9z
			 M122.1,280.7c0-0.1,0-0.2,0-0.3l-0.9-19.5c-0.1-1.9-1.7-3.4-3.6-3.3c-1.9,0.1-3.4,1.7-3.3,3.6l0.9,19.5H49.1v-44.4
			c1.7-3.4,14.1-26,43.3-36.3c29.8-10.5,66.6-5.2,109.5,15.9v64.9H122.1z"/>
	</g>
</g>
</svg>
