<?xml version="1.0" encoding="UTF-8"?><svg id="Calque_3" xmlns="http://www.w3.org/2000/svg" width="500" height="500" viewBox="0 0 500 500"><path d="M9.54,292.12s8.78-122.13,29.32-122.13,23.1,150.77,44.18,150.77,19.45-199.63,51.88-199.63,28.42,229.11,51.65,229.11,14.27-142.35,35.89-142.35,10.27,170.99,38.91,170.99,35.13-234.16,64.85-234.16,22.7,184.46,45.93,184.46,18.37-143.19,48.09-143.19,23.24,150.77,44.85,150.77,17.83-44.64,25.4-44.64" style="fill:#7df032; opacity:.5; stroke-width:0px;"/><path d="M9.54,292.3s8.78-78.36,29.32-78.36,23.1,96.73,44.18,96.73,19.45-128.07,51.88-128.07,28.42,146.99,51.65,146.99,14.27-91.33,35.89-91.33,10.27,109.7,38.91,109.7,35.13-150.23,64.85-150.23,22.7,118.35,45.93,118.35,18.37-91.87,48.09-91.87,23.24,96.73,44.85,96.73,17.83-28.64,25.4-28.64" style="fill:#000; opacity:.83; stroke-width:0px;"/><path d="M9.51,292.1s8.78-97.59,29.32-97.59,23.1,120.48,44.18,120.48,19.45-159.52,51.88-159.52,28.42,183.07,51.65,183.07,14.27-113.75,35.89-113.75,10.27,136.63,38.91,136.63,35.13-187.11,64.85-187.11,22.7,147.4,45.93,147.4,18.37-114.42,48.09-114.42,23.24,120.48,44.85,120.48,17.83-35.67,25.4-35.67" style="fill:#000; opacity:.5; stroke-width:0px;"/></svg>