<?xml version="1.0" encoding="UTF-8"?><svg id="Calque_1" xmlns="http://www.w3.org/2000/svg" width="500" height="500" viewBox="0 0 500 500"><rect width="500" height="500" style="fill:rgba(0,0,0,0); stroke-width:0px;"/><circle cx="63.68" cy="94.02" r="11.33" style="fill:#000; isolation:isolate; opacity:.15; stroke-width:0px;"/><circle cx="105.41" cy="100.86" r="11.33" style="fill:#000; isolation:isolate; opacity:.5; stroke-width:0px;"/><circle cx="90.66" cy="167.4" r="11.33" style="fill:#000; isolation:isolate; opacity:.5; stroke-width:0px;"/><circle cx="128.07" cy="146.18" r="11.33" style="fill:#000; isolation:isolate; opacity:.5; stroke-width:0px;"/><circle cx="145.34" cy="178.73" r="11.33" style="fill:#000; stroke-width:0px;"/><circle cx="105.41" cy="232.69" r="11.33" style="fill:#000; isolation:isolate; opacity:.5; stroke-width:0px;"/><circle cx="37.78" cy="251.03" r="11.33" transform="translate(-214.01 283.35) rotate(-88.76)" style="fill:#000; isolation:isolate; opacity:.15; stroke-width:0px;"/><circle cx="154.15" cy="271" r="11.33" style="fill:#000; stroke-width:0px;"/><circle cx="150.73" cy="230.89" r="11.33" style="fill:#000; isolation:isolate; opacity:.5; stroke-width:0px;"/><circle cx="199.02" cy="219.56" r="11.33" style="fill:#000; stroke-width:0px;"/><circle cx="168" cy="128.91" r="11.33" style="fill:#000; isolation:isolate; opacity:.5; stroke-width:0px;"/><circle cx="165.48" cy="94.02" r="11.33" style="fill:#000; stroke-width:0px;"/><circle cx="211.52" cy="116.68" r="11.33" style="fill:#000; stroke-width:0px;"/><circle cx="200.19" cy="157.51" r="11.33" style="fill:#000; stroke-width:0px;"/><circle cx="228.97" cy="140.24" r="11.33" style="fill:#000; stroke-width:0px;"/><circle cx="244.8" cy="100.86" r="11.33" style="fill:#000; stroke-width:0px;"/><circle cx="278.07" cy="219.56" r="11.33" style="fill:#000; stroke-width:0px;"/><circle cx="299.4" cy="190.06" r="11.33" style="fill:#000; stroke-width:0px;"/><circle cx="275.19" cy="259.67" r="11.33" style="fill:#000; stroke-width:0px;"/><circle cx="300.73" cy="230.89" r="11.33" style="fill:#000; stroke-width:0px;"/><circle cx="187.69" cy="308.41" r="11.33" style="fill:#000; stroke-width:0px;"/><circle cx="217.64" cy="297.08" r="11.33" style="fill:#000; stroke-width:0px;"/><circle cx="300.73" cy="278.28" r="11.33" style="fill:#000; stroke-width:0px;"/><circle cx="286.52" cy="315.33" r="11.33" style="fill:#000; stroke-width:0px;"/><circle cx="289.4" cy="381.79" r="11.33" style="fill:#000; stroke-width:0px;"/><circle cx="235.08" cy="360.66" r="11.33" style="fill:#000; stroke-width:0px;"/><circle cx="217.64" cy="331.7" r="11.33" style="fill:#000; stroke-width:0px;"/><circle cx="194.62" cy="365.69" r="11.33" style="fill:#000; stroke-width:0px;"/><circle cx="332" cy="381.79" r="11.33" style="fill:#000; stroke-width:0px;"/><circle cx="222.85" cy="394.65" r="11.33" style="fill:#000; stroke-width:0px;"/><circle cx="286.52" cy="148.52" r="11.33" style="fill:#000; stroke-width:0px;"/><circle cx="217.64" cy="82.69" r="11.33" style="fill:#000; stroke-width:0px;"/><circle cx="240.3" cy="174.24" r="11.33" style="fill:#7df032; stroke-width:0px;"/><circle cx="210.35" cy="185.57" r="11.33" style="fill:#000; stroke-width:0px;"/><circle cx="176.81" cy="181.43" r="11.33" style="fill:#000; stroke-width:0px;"/><circle cx="211.52" cy="251.03" r="11.33" style="fill:#000; stroke-width:0px;"/><circle cx="228.97" cy="212.64" r="11.33" style="fill:#000; stroke-width:0px;"/><circle cx="116.74" cy="289.61" r="11.33" transform="translate(-27.97 12.91) rotate(-5.65)" style="fill:#000; isolation:isolate; opacity:.5; stroke-width:0px;"/><circle cx="68" cy="354.36" r="11.33" style="fill:#000; isolation:isolate; opacity:.15; stroke-width:0px;"/><circle cx="101.99" cy="398.96" r="11.33" style="fill:#000; isolation:isolate; opacity:.15; stroke-width:0px;"/><circle cx="26.45" cy="398.96" r="11.33" transform="translate(-7.97 .61) rotate(-1.15)" style="fill:#000; isolation:isolate; opacity:.15; stroke-width:0px;"/><circle cx="154.15" cy="349.32" r="11.33" style="fill:#000; stroke-width:0px;"/><circle cx="128.07" cy="331.7" r="11.33" style="fill:#000; isolation:isolate; opacity:.5; stroke-width:0px;"/><circle cx="424.99" cy="94.02" r="11.33" style="fill:#000; isolation:isolate; opacity:.15; stroke-width:0px;"/><circle cx="398.01" cy="123.52" r="11.33" style="fill:#000; isolation:isolate; opacity:.5; stroke-width:0px;"/><circle cx="398.01" cy="167.4" r="11.33" style="fill:#000; isolation:isolate; opacity:.5; stroke-width:0px;"/><circle cx="360.6" cy="146.18" r="11.33" style="fill:#000; stroke-width:0px;"/><circle cx="343.33" cy="178.73" r="11.33" style="fill:#000; stroke-width:0px;"/><circle cx="383.26" cy="232.69" r="11.33" style="fill:#000; isolation:isolate; opacity:.5; stroke-width:0px;"/><circle cx="432" cy="191.5" r="11.33" style="fill:#000; isolation:isolate; opacity:.5; stroke-width:0px;"/><circle cx="450.89" cy="251.03" r="11.33" style="fill:#000; isolation:isolate; opacity:.15; stroke-width:0px;"/><circle cx="334.52" cy="271" r="11.33" style="fill:#000; stroke-width:0px;"/><circle cx="332" cy="211.29" r="11.33" style="fill:#000; stroke-width:0px;"/><circle cx="323.19" cy="151.57" r="11.33" style="fill:#000; stroke-width:0px;"/><circle cx="311.86" cy="112.19" r="11.33" style="fill:#000; stroke-width:0px;"/><circle cx="270.86" cy="122.19" r="11.33" style="fill:#7df032; stroke-width:0px;"/><circle cx="258.86" cy="147.19" r="11.33" style="fill:#7df032; stroke-width:0px;"/><circle cx="270.86" cy="173.19" r="11.33" style="fill:#7df032; stroke-width:0px;"/><circle cx="254.86" cy="198.2" r="11.33" style="fill:#7df032; stroke-width:0px;"/><circle cx="250.86" cy="232.2" r="11.33" style="fill:#7df032; stroke-width:0px;"/><circle cx="237.86" cy="260.2" r="11.33" style="fill:#7df032; stroke-width:0px;"/><circle cx="267.86" cy="285.2" r="11.33" style="fill:#7df032; stroke-width:0px;"/><circle cx="241.86" cy="285.2" r="11.33" style="fill:#7df032; stroke-width:0px;"/><circle cx="242.86" cy="313.2" r="11.33" style="fill:#7df032; stroke-width:0px;"/><circle cx="264.86" cy="334.2" r="11.33" style="fill:#7df032; stroke-width:0px;"/><circle cx="263.86" cy="363.21" r="11.33" style="fill:#7df032; stroke-width:0px;"/><circle cx="253.86" cy="392.21" r="11.33" style="fill:#7df032; stroke-width:0px;"/><circle cx="320.15" cy="310.16" r="11.33" style="fill:#000; stroke-width:0px;"/><circle cx="371.93" cy="289.61" r="11.33" style="fill:#000; stroke-width:0px;"/><circle cx="409.34" cy="271" r="11.33" style="fill:#000; isolation:isolate; opacity:.5; stroke-width:0px;"/><circle cx="420.67" cy="354.36" r="11.33" style="fill:#000; isolation:isolate; opacity:.15; stroke-width:0px;"/><circle cx="473.55" cy="383.32" r="11.33" style="fill:#000; isolation:isolate; opacity:.15; stroke-width:0px;"/><circle cx="386.68" cy="398.96" r="11.33" style="fill:#000; isolation:isolate; opacity:.5; stroke-width:0px;"/><circle cx="303.51" cy="349.32" r="11.33" style="fill:#000; stroke-width:0px;"/><circle cx="360.6" cy="331.7" r="11.33" style="fill:#000; stroke-width:0px;"/></svg>