<?xml version="1.0" encoding="UTF-8"?><svg xmlns="http://www.w3.org/2000/svg" width="33" height="33" viewBox="0 0 33 33"><g id="a"><circle cx="16.5" cy="16.5" r="11.5" style="fill:#fff; opacity:.22;"/><path d="M16.5,5.25c6.2,0,11.25,5.05,11.25,11.25s-5.05,11.25-11.25,11.25-11.25-5.05-11.25-11.25S10.3,5.25,16.5,5.25m0-1c-6.77,0-12.25,5.48-12.25,12.25s5.48,12.25,12.25,12.25,12.25-5.48,12.25-12.25-5.48-12.25-12.25-12.25h0Z"/></g><g id="b"><g><polygon points="17 0 16 0 16 8 17 8 17 0 17 0"/><polygon points="17 25 16 25 16 33 17 33 17 25 17 25"/><polygon points="8 16 0 16 0 17 8 17 8 16 8 16"/><polygon points="33 16 25 16 25 17 33 17 33 16 33 16"/><polygon points="10.14 22.16 4.48 27.81 5.19 28.52 10.84 22.86 10.14 22.16 10.14 22.16"/><polygon points="27.81 4.48 22.16 10.14 22.86 10.84 28.52 5.19 27.81 4.48 27.81 4.48"/><polygon points="22.86 22.16 22.16 22.86 27.81 28.52 28.52 27.81 22.86 22.16 22.86 22.16"/><polygon points="5.19 4.48 4.48 5.19 10.14 10.84 10.84 10.14 5.19 4.48 5.19 4.48"/></g></g><g id="c"><path d="M14.75,16.5c0-4.83,2.54-9.03,6.29-11.27-1.47-.63-3.09-.98-4.79-.98-6.77,0-12.25,5.48-12.25,12.25s5.48,12.25,12.25,12.25c1.7,0,3.32-.35,4.79-.98-3.76-2.24-6.29-6.45-6.29-11.27Z"/></g></svg>