<?xml version="1.0" encoding="UTF-8"?><svg id="Calque_2" xmlns="http://www.w3.org/2000/svg" width="500" height="500" viewBox="0 0 500 500"><circle cx="250" cy="250" r="136.32" style="fill:none; stroke:#000; stroke-miterlimit:10;"/><g id="_Répétition_radiale_"><rect x="307.78" y="349.14" width="7.55" height="75.74" transform="translate(760.6 599.6) rotate(154.17)" style="fill:#7df032; stroke-width:0px;"/></g><g id="_Répétition_radiale_-2"><rect x="265.4" y="362.39" width="7.55" height="75.74" transform="translate(595.73 755.26) rotate(171.31)" style="fill:#7df032; stroke-width:0px;"/></g><g id="_Répétition_radiale_-3"><rect x="221.01" y="362.55" width="7.55" height="75.74" transform="translate(388.25 829.54) rotate(-171.54)" style="fill:#7df032; stroke-width:0px;"/></g><g id="_Répétition_radiale_-4"><rect x="178.53" y="349.63" width="7.55" height="75.74" transform="translate(179.31 815.72) rotate(-154.4)" style="fill:#7df032; stroke-width:0px;"/></g><g id="_Répétition_radiale_-5"><rect x="141.76" y="324.75" width="7.55" height="75.74" transform="translate(6.31 727.72) rotate(-137.26)" style="fill:#7df032; stroke-width:0px;"/></g><g id="_Répétition_radiale_-6"><rect x="113.95" y="290.15" width="7.55" height="75.74" transform="translate(-106.95 594.44) rotate(-120.12)" style="fill:#7df032; stroke-width:0px;"/></g><g id="_Répétition_radiale_-7"><rect x="97.57" y="248.88" width="7.55" height="75.74" transform="translate(-155.33 449.89) rotate(-102.97)" style="fill:#7df032; stroke-width:0px;"/></g><g id="_Répétition_radiale_-8"><rect x="94.09" y="204.63" width="7.55" height="75.74" transform="translate(-151.1 322.47) rotate(-85.83)" style="fill:#7df032; stroke-width:0px;"/></g><g id="_Répétition_radiale_-9"><rect x="103.8" y="161.3" width="7.55" height="75.74" transform="translate(-117.07 227.01) rotate(-68.69)" style="fill:#7df032; stroke-width:0px;"/></g><g id="_Répétition_radiale_-10"><rect x="125.86" y="122.77" width="7.55" height="75.74" transform="translate(-76.78 162.25) rotate(-51.54)" style="fill:#7df032; stroke-width:0px;"/></g><g id="_Répétition_radiale_-11"><rect x="158.29" y="92.45" width="7.55" height="75.74" transform="translate(-45.29 114.36) rotate(-34.4)" style="fill:#7df032; stroke-width:0px;"/></g><g id="_Répétition_radiale_-12"><rect x="198.21" y="73.04" width="7.55" height="75.74" transform="translate(-23.81 64.92) rotate(-17.26)" style="fill:#7df032; stroke-width:0px;"/></g><g id="_Répétition_radiale_-13"><rect x="242.09" y="66.26" width="7.55" height="75.74" transform="translate(-.21 .5) rotate(-.12)" style="fill:#7df032; stroke-width:0px;"/></g><g id="_Répétition_radiale_-14"><rect x="286.01" y="72.71" width="7.55" height="75.74" transform="translate(45.08 -80.01) rotate(17.03)" style="fill:#7df032; stroke-width:0px;"/></g><g id="_Répétition_radiale_-15"><rect x="326.08" y="91.82" width="7.55" height="75.74" transform="translate(129.78 -162.88) rotate(34.17)" style="fill:#7df032; stroke-width:0px;"/></g><g id="_Répétition_radiale_-16"><rect x="358.74" y="121.89" width="7.55" height="75.74" transform="translate(260.62 -223.07) rotate(51.31)" style="fill:#7df032; stroke-width:0px;"/></g><g id="_Répétition_radiale_-17"><rect x="381.08" y="160.26" width="7.55" height="75.74" transform="translate(427.81 -232.6) rotate(68.46)" style="fill:#7df032; stroke-width:0px;"/></g><g id="_Répétition_radiale_-18"><rect x="391.13" y="203.5" width="7.55" height="75.74" transform="translate(605.25 -170.89) rotate(85.6)" style="fill:#7df032; stroke-width:0px;"/></g><g id="_Répétition_radiale_-19"><rect x="387.98" y="247.79" width="7.55" height="75.74" transform="translate(756.77 -33.45) rotate(102.74)" style="fill:#7df032; stroke-width:0px;"/></g><g id="_Répétition_radiale_-20"><rect x="371.91" y="289.18" width="7.55" height="75.74" transform="translate(846.43 164.26) rotate(119.88)" style="fill:#7df032; stroke-width:0px;"/></g><g id="_Répétition_radiale_-21"><rect x="344.36" y="323.99" width="7.55" height="75.74" transform="translate(849.53 389.31) rotate(137.03)" style="fill:#7df032; stroke-width:0px;"/></g><g id="_Répétition_radiale_-22"><rect x="290.97" y="362.45" width="10.59" height="96.79" transform="translate(693.4 725.25) rotate(164.17)" style="fill:#fff; stroke:#000; stroke-miterlimit:10; stroke-width:1px;"/></g><g id="_Répétition_radiale_-23"><rect x="241.51" y="368.94" width="10.59" height="96.79" transform="translate(484.02 840.19) rotate(-178.69)" style="fill:#fff; stroke:#000; stroke-miterlimit:10; stroke-width:1px;"/></g><g id="_Répétition_radiale_-24"><rect x="192.33" y="360.56" width="10.59" height="96.79" transform="translate(255.66 859.44) rotate(-161.55)" style="fill:#fff; stroke:#000; stroke-miterlimit:10; stroke-width:1px;"/></g><g id="_Répétition_radiale_-25"><rect x="147.8" y="338.06" width="10.59" height="96.79" transform="translate(52.66 789.82) rotate(-144.41)" style="fill:#fff; stroke:#000; stroke-miterlimit:10; stroke-width:1px;"/></g><g id="_Répétition_radiale_-26"><rect x="111.88" y="303.44" width="10.59" height="96.79" transform="translate(-91.88 658.12) rotate(-127.26)" style="fill:#fff; stroke:#000; stroke-miterlimit:10; stroke-width:1px;"/></g><g id="_Répétition_radiale_-27"><rect x="87.77" y="259.76" width="10.59" height="96.79" transform="translate(-164.27 501.55) rotate(-110.12)" style="fill:#fff; stroke:#000; stroke-miterlimit:10; stroke-width:1px;"/></g><g id="_Répétition_radiale_-28"><rect x="77.6" y="210.92" width="10.59" height="96.79" transform="translate(-171.77 355.57) rotate(-92.98)" style="fill:#fff; stroke:#000; stroke-miterlimit:10; stroke-width:1px;"/></g><g id="_Répétition_radiale_-29"><rect x="82.27" y="161.25" width="10.59" height="96.79" transform="translate(-137.14 243.25) rotate(-75.83)" style="fill:#fff; stroke:#000; stroke-miterlimit:10; stroke-width:1px;"/></g><g id="_Répétition_radiale_-30"><rect x="101.38" y="115.17" width="10.59" height="96.79" transform="translate(-88.5 169.72) rotate(-58.69)" style="fill:#fff; stroke:#000; stroke-miterlimit:10; stroke-width:1px;"/></g><g id="_Répétition_radiale_-31"><rect x="133.23" y="76.76" width="10.59" height="96.79" transform="translate(-48.16 123.37) rotate(-41.55)" style="fill:#fff; stroke:#000; stroke-miterlimit:10; stroke-width:1px;"/></g><g id="_Répétition_radiale_-32"><rect x="174.98" y="49.45" width="10.59" height="96.79" transform="translate(-24.32 83.23) rotate(-24.41)" style="fill:#fff; stroke:#000; stroke-miterlimit:10; stroke-width:1px;"/></g><g id="_Répétition_radiale_-33"><rect x="222.92" y="35.66" width="10.59" height="96.79" transform="translate(-8.8 29.53) rotate(-7.26)" style="fill:#fff; stroke:#000; stroke-miterlimit:10; stroke-width:1px;"/></g><g id="_Répétition_radiale_-34"><rect x="272.8" y="36.61" width="10.59" height="96.79" transform="translate(18.71 -46.45) rotate(9.88)" style="fill:#fff; stroke:#000; stroke-miterlimit:10; stroke-width:1px;"/></g><g id="_Répétition_radiale_-35"><rect x="320.19" y="52.23" width="10.59" height="96.79" transform="translate(81.25 -136.89) rotate(27.02)" style="fill:#fff; stroke:#000; stroke-miterlimit:10; stroke-width:1px;"/></g><g id="_Répétition_radiale_-36"><rect x="360.86" y="81.11" width="10.59" height="96.79" transform="translate(193.73 -218.51) rotate(44.17)" style="fill:#fff; stroke:#000; stroke-miterlimit:10; stroke-width:1px;"/></g><g id="_Répétition_radiale_-37"><rect x="391.22" y="120.7" width="10.59" height="96.79" transform="translate(354.48 -259.91) rotate(61.31)" style="fill:#fff; stroke:#000; stroke-miterlimit:10; stroke-width:1px;"/></g><g id="_Répétition_radiale_-38"><rect x="408.55" y="167.48" width="10.59" height="96.79" transform="translate(542.5 -232.81) rotate(78.45)" style="fill:#fff; stroke:#000; stroke-miterlimit:10; stroke-width:1px;"/></g><g id="_Répétition_radiale_-39"><rect x="411.33" y="217.29" width="10.59" height="96.79" transform="translate(721.66 -123.06) rotate(95.59)" style="fill:#fff; stroke:#000; stroke-miterlimit:10; stroke-width:1px;"/></g><g id="_Répétition_radiale_-40"><rect x="399.3" y="265.71" width="10.59" height="96.79" transform="translate(850.68 62.35) rotate(112.74)" style="fill:#fff; stroke:#000; stroke-miterlimit:10; stroke-width:1px;"/></g><g id="_Répétition_radiale_-41"><rect x="373.54" y="308.43" width="10.59" height="96.79" transform="translate(895.57 294.9) rotate(129.88)" style="fill:#fff; stroke:#000; stroke-miterlimit:10; stroke-width:1px;"/></g><g id="_Répétition_radiale_-42"><rect x="336.33" y="341.66" width="10.59" height="96.79" transform="translate(840.52 531.32) rotate(147.02)" style="fill:#fff; stroke:#000; stroke-miterlimit:10; stroke-width:1px;"/></g></svg>