<?xml version="1.0" encoding="UTF-8"?><svg id="Calque_4" xmlns="http://www.w3.org/2000/svg" width="500" height="500" viewBox="0 0 500 500"><circle cx="252.48" cy="243.62" r="101.87" style="fill:none; stroke:#000; stroke-miterlimit:10;"/><circle cx="252.48" cy="243.62" r="191.74" style="fill:none; stroke:#000; stroke-miterlimit:10;"/><circle cx="252.48" cy="243.62" r="192.26" style="fill:none; stroke:#000; stroke-miterlimit:10; stroke-width:2px;"/><circle cx="252.48" cy="243.62" r="163.44" style="fill:none; stroke:#000; stroke-miterlimit:10;"/><circle cx="252.48" cy="243.62" r="221.62" style="fill:none; stroke:#000; stroke-miterlimit:10;"/><circle cx="252.48" cy="243.62" r="199.4" style="fill:none; stroke:#000; stroke-miterlimit:10; stroke-width:2px;"/><circle cx="252.48" cy="243.62" r="222.38" style="fill:none; stroke:#000; stroke-miterlimit:10; stroke-width:2px;"/><circle cx="252.48" cy="243.62" r="112.6" style="fill:none; stroke:#000; stroke-miterlimit:10; stroke-width:2px;"/><circle cx="252.48" cy="243.62" r="78.81" style="fill:none; stroke:#000; stroke-miterlimit:10;"/><path d="M236.16,222.56c.17.29,6.09-4.01,6.3-3.64.46.79-12.5,9.42-12.18,9.97.5.87,19.96-12.9,20.56-11.87s-23.87,15.81-23.2,16.97c.93,1.6,28.03-18.31,28.95-16.71s-30.93,19.63-30.19,20.9c.87,1.51,33.25-21.92,34.43-19.88.92,1.59-35.97,22.16-34.95,23.92,1.23,2.12,37.46-24.52,38.71-22.35,1.18,2.04-39.6,24.4-38.64,26.07,1.17,2.03,40.6-26.28,41.83-24.15,1.35,2.33-42.75,25.09-41.3,27.59s42.53-28,44.02-25.41c1.17,2.03-44.73,25.67-43.2,28.32,1.12,1.93,43.85-28.67,45.3-26.16,1.53,2.64-45.74,26.22-44.19,28.9,1.17,2.03,44.94-28.41,46.01-26.56,1.23,2.14-46.14,26.48-44.55,29.23,1.37,2.37,44.6-29.29,46.14-26.64,1.17,2.03-45.78,26.77-44.55,28.9,1.37,2.38,44.37-28.75,45.72-26.4,1.09,1.9-45.02,26.4-43.65,28.77s43.32-28.12,44.66-25.79c1.17,2.03-43.61,25.81-42.49,27.76,1.45,2.52,42.11-26.62,43.11-24.89,1.08,1.87-42.28,24.05-40.84,26.54,1.16,2.01,40.04-25.64,41.13-23.75s-39.53,23.12-38.2,25.41c1.2,2.07,37.22-23.66,38.16-22.03,1.05,1.83-35.24,21.59-34.08,23.6.79,1.36,32.47-20.91,33.41-19.29.79,1.37-29.96,18.84-29.2,20.16s27.14-17.34,27.86-16.09c.77,1.33-23.48,14.9-22.71,16.23.65,1.13,19.58-12.86,20.26-11.69" style="fill:none; stroke:#7df032; stroke-linecap:round; stroke-linejoin:round;"/></svg>