<svg xmlns="http://www.w3.org/2000/svg" width="500" height="500"><path d="M21.58 291.93h24v24h-24z" style="fill:#000;stroke-width:0"/><path d="M21.58 322.93h24v24h-24z" style="fill:#000;opacity:.5;stroke-width:0"/><path d="M52.58 291.93h24v24h-24z" style="fill:#000;stroke-width:0"/><path d="M52.58 322.93h24v24h-24z" style="fill:#000;opacity:.5;stroke-width:0"/><path d="M52.58 260.92h24v24h-24zM83.59 291.93h24v24h-24z" style="fill:#000;stroke-width:0"/><path d="M83.59 322.93h24v24h-24z" style="fill:#000;opacity:.5;stroke-width:0"/><path d="M83.59 260.92h24v24h-24zM114.59 291.93h24v24h-24z" style="fill:#000;stroke-width:0"/><path d="M114.59 322.93h24v24h-24z" style="fill:#000;opacity:.5;stroke-width:0"/><path d="M114.59 260.92h24v24h-24zM114.59 229.92h24v24h-24z" style="fill:#000;stroke-width:0"/><path d="M114.59 198.92h24v24h-24z" style="fill:#7df032;stroke-width:0"/><path d="M176.59 291.93h24v24h-24z" style="fill:#000;stroke-width:0"/><path d="M176.59 322.93h24v24h-24z" style="fill:#000;opacity:.5;stroke-width:0"/><path d="M176.59 260.92h24v24h-24zM176.59 229.92h24v24h-24zM176.59 198.92h24v24h-24zM176.59 167.92h24v24h-24z" style="fill:#000;stroke-width:0"/><path d="M176.59 166.92h24v24h-24z" style="fill:#000;stroke-width:0"/><path d="M207.59 291.93h24v24h-24z" style="fill:#000;stroke-width:0" transform="rotate(-20.23 219.565 303.897)"/><path d="M207.59 322.93h24v24h-24z" style="fill:#000;opacity:.5;stroke-width:0"/><path d="M207.59 260.92h24v24h-24zM207.59 229.92h24v24h-24zM207.59 198.92h24v24h-24zM207.59 167.92h24v24h-24z" style="fill:#000;stroke-width:0"/><path d="M207.59 166.92h24v24h-24zM269.6 291.93h24v24h-24z" style="fill:#000;stroke-width:0"/><path d="M269.6 322.93h24v24h-24z" style="fill:#000;opacity:.5;stroke-width:0"/><path d="M300.6 291.93h24v24h-24z" style="fill:#000;stroke-width:0"/><path d="M300.6 322.93h24v24h-24z" style="fill:#000;opacity:.5;stroke-width:0" transform="rotate(-77.27 312.617 334.932)"/><path d="M269.6 260.92h24v24h-24zM331.6 291.93h24v24h-24z" style="fill:#000;stroke-width:0"/><path d="M331.6 322.93h24v24h-24z" style="fill:#000;opacity:.5;stroke-width:0"/><path d="M300.6 260.92h24v24h-24zM422.61 291.93h24v24h-24z" style="fill:#000;stroke-width:0"/><path d="M422.61 322.93h24v24h-24z" style="fill:#000;opacity:.5;stroke-width:0"/><path d="M453.61 291.93h24v24h-24z" style="fill:#000;stroke-width:0"/><path d="M453.61 322.93h24v24h-24z" style="fill:#000;opacity:.5;stroke-width:0"/><path d="M422.61 260.92h24v24h-24zM269.6 229.92h24v24h-24zM269.6 198.92h24v24h-24z" style="fill:#000;stroke-width:0"/><path d="M269.6 167.92h24v24h-24zM347.27 159.93h24v24h-24z" style="fill:#7df032;stroke-width:0"/><path d="M331.6 93.93h24v24h-24z" style="fill:#7df032;stroke-width:0" transform="rotate(-67.59 343.62 105.92)"/><path d="M238.6 291.93h24v24h-24z" style="fill:#000;stroke-width:0"/><path d="M238.6 322.93h24v24h-24z" style="fill:#000;opacity:.5;stroke-width:0"/><path d="M238.6 260.92h24v24h-24zM238.6 229.92h24v24h-24zM238.6 198.92h24v24h-24z" style="fill:#000;stroke-width:0"/><path d="M176.59 135.92h24v24h-24z" style="fill:#7df032;stroke-width:0" transform="rotate(-18.43 188.564 147.91)"/><path d="M145.59 291.93h24v24h-24z" style="fill:#000;stroke-width:0"/><path d="M145.59 322.93h24v24h-24z" style="fill:#000;opacity:.5;stroke-width:0"/><path d="M145.59 260.92h24v24h-24z" style="fill:#000;stroke-width:0"/><path d="M145.59 229.92h24v24h-24z" style="fill:#000;stroke-width:0" transform="rotate(-83.38 157.587 241.923)"/><path d="M52.58 229.92h24v24h-24z" style="fill:#7df032;stroke-width:0"/><path d="M361.6 291.93h24v24h-24z" style="fill:#000;stroke-width:0"/><path d="M361.6 322.93h24v24h-24z" style="fill:#000;opacity:.5;stroke-width:0"/><path d="M361.6 260.92h24v24h-24zM361.6 229.92h24v24h-24zM392.61 291.93h24v24h-24z" style="fill:#000;stroke-width:0"/><path d="M392.61 322.93h24v24h-24z" style="fill:#000;opacity:.5;stroke-width:0"/><path d="M21.58 353.93h24v24h-24zM52.58 353.93h24v24h-24zM83.59 353.93h24v24h-24zM114.59 353.93h24v24h-24zM176.59 353.93h24v24h-24zM207.59 353.93h24v24h-24zM269.6 353.93h24v24h-24zM300.6 353.93h24v24h-24zM331.6 353.93h24v24h-24z" style="fill:#000;opacity:.3;stroke-width:0"/><path d="M422.61 353.93h24v24h-24z" style="fill:#000;opacity:.3;stroke-width:0" transform="rotate(-74.75 434.613 365.932)"/><path d="M453.61 353.93h24v24h-24zM238.6 353.93h24v24h-24zM145.59 353.93h24v24h-24zM361.6 353.93h24v24h-24zM392.61 353.93h24v24h-24z" style="fill:#000;opacity:.3;stroke-width:0"/><path d="M21.58 384.93h24v24h-24zM52.58 384.93h24v24h-24zM83.59 384.93h24v24h-24zM114.59 384.93h24v24h-24zM176.59 384.93h24v24h-24zM207.59 384.93h24v24h-24zM269.6 384.93h24v24h-24zM300.6 384.93h24v24h-24zM331.6 384.93h24v24h-24zM422.61 384.93h24v24h-24z" style="fill:#000;opacity:.15;stroke-width:0"/><path d="M453.61 384.93h24v24h-24z" style="fill:#000;opacity:.15;stroke-width:0" transform="rotate(-86 465.571 396.931)"/><path d="M238.6 384.93h24v24h-24zM145.59 384.93h24v24h-24zM361.6 384.93h24v24h-24zM392.61 384.93h24v24h-24z" style="fill:#000;opacity:.15;stroke-width:0"/><path d="M392.61 260.92h24v24h-24zM392.61 229.92h24v24h-24z" style="fill:#000;stroke-width:0"/><path d="M392.61 198.92h24v24h-24z" style="fill:#7df032;stroke-width:0"/></svg>