<!-- SVG DEFINITIONS -->
<svg xmlns="http://www.w3.org/2000/svg" class="svg-library">
  <defs>

    <g id="logo">
      <rect x="45.04" y="3.86" width="22.99" height="42.3" style="fill:#70f906;"/><rect x="154.37" y="3.86" width="22.99" height="42.3" style="fill:#70f906;"/><rect x="286.42" y="3.86" width="22.99" height="42.3" style="fill:#70f906;"/><rect x="330.29" y="20.55" width="22.99" height="22.99" style="fill:#70f906;"/><rect y="28.64" width="22.99" height="14.83" style="fill:#70f906;"/><rect x="240.97" y="28.64" width="22.99" height="14.83" style="fill:#70f906;"/><rect x="197.15" y="28.64" width="22.99" height="14.83" style="fill:#70f906;"/><circle cx="122.53" cy="12.78" r="12.78" style="fill:#70f906;"/><circle cx="395.08" cy="26.23" r="22.61" style="fill:#70f906;"/>
    </g>
    <g id="pic-1">
      <path d="M0 0h500v500H0z" style="fill:transparent;stroke-width:0"/><circle cx="63.68" cy="94.02" r="11.33" style="fill: currentColor;isolation:isolate;opacity:.15;stroke-width:0"/><circle cx="105.41" cy="100.86" r="11.33" style="fill: currentColor;isolation:isolate;opacity:.5;stroke-width:0"/><circle cx="90.66" cy="167.4" r="11.33" style="fill: currentColor;isolation:isolate;opacity:.5;stroke-width:0"/><circle cx="128.07" cy="146.18" r="11.33" style="fill: currentColor;isolation:isolate;opacity:.5;stroke-width:0"/><circle cx="145.34" cy="178.73" r="11.33" style="fill: currentColor;stroke-width:0"/><circle cx="105.41" cy="232.69" r="11.33" style="fill: currentColor;isolation:isolate;opacity:.5;stroke-width:0"/><circle cx="37.78" cy="251.03" r="11.33" style="fill: currentColor;isolation:isolate;opacity:.15;stroke-width:0" transform="rotate(-88.76 37.77 251.021)"/><circle cx="154.15" cy="271" r="11.33" style="fill: currentColor;stroke-width:0"/><circle cx="150.73" cy="230.89" r="11.33" style="fill: currentColor;isolation:isolate;opacity:.5;stroke-width:0"/><circle cx="199.02" cy="219.56" r="11.33" style="fill: currentColor;stroke-width:0"/><circle cx="168" cy="128.91" r="11.33" style="fill: currentColor;isolation:isolate;opacity:.5;stroke-width:0"/><circle cx="165.48" cy="94.02" r="11.33" style="fill: currentColor;stroke-width:0"/><circle cx="211.52" cy="116.68" r="11.33" style="fill: currentColor;stroke-width:0"/><circle cx="200.19" cy="157.51" r="11.33" style="fill: currentColor;stroke-width:0"/><circle cx="228.97" cy="140.24" r="11.33" style="fill: currentColor;stroke-width:0"/><circle cx="244.8" cy="100.86" r="11.33" style="fill: currentColor;stroke-width:0"/><circle cx="278.07" cy="219.56" r="11.33" style="fill: currentColor;stroke-width:0"/><circle cx="299.4" cy="190.06" r="11.33" style="fill: currentColor;stroke-width:0"/><circle cx="275.19" cy="259.67" r="11.33" style="fill: currentColor;stroke-width:0"/><circle cx="300.73" cy="230.89" r="11.33" style="fill: currentColor;stroke-width:0"/><circle cx="187.69" cy="308.41" r="11.33" style="fill: currentColor;stroke-width:0"/><circle cx="217.64" cy="297.08" r="11.33" style="fill: currentColor;stroke-width:0"/><circle cx="300.73" cy="278.28" r="11.33" style="fill: currentColor;stroke-width:0"/><circle cx="286.52" cy="315.33" r="11.33" style="fill: currentColor;stroke-width:0"/><circle cx="289.4" cy="381.79" r="11.33" style="fill: currentColor;stroke-width:0"/><circle cx="235.08" cy="360.66" r="11.33" style="fill: currentColor;stroke-width:0"/><circle cx="217.64" cy="331.7" r="11.33" style="fill: currentColor;stroke-width:0"/><circle cx="194.62" cy="365.69" r="11.33" style="fill: currentColor;stroke-width:0"/><circle cx="332" cy="381.79" r="11.33" style="fill: currentColor;stroke-width:0"/><circle cx="222.85" cy="394.65" r="11.33" style="fill: currentColor;stroke-width:0"/><circle cx="286.52" cy="148.52" r="11.33" style="fill: currentColor;stroke-width:0"/><circle cx="217.64" cy="82.69" r="11.33" style="fill: currentColor;stroke-width:0"/><circle cx="240.3" cy="174.24" r="11.33" style="fill:#7df032;stroke-width:0"/><circle cx="210.35" cy="185.57" r="11.33" style="fill: currentColor;stroke-width:0"/><circle cx="176.81" cy="181.43" r="11.33" style="fill: currentColor;stroke-width:0"/><circle cx="211.52" cy="251.03" r="11.33" style="fill: currentColor;stroke-width:0"/><circle cx="228.97" cy="212.64" r="11.33" style="fill: currentColor;stroke-width:0"/><circle cx="116.74" cy="289.61" r="11.33" style="fill: currentColor;isolation:isolate;opacity:.5;stroke-width:0" transform="rotate(-5.65 116.827 289.865)"/><circle cx="68" cy="354.36" r="11.33" style="fill: currentColor;isolation:isolate;opacity:.15;stroke-width:0"/><circle cx="101.99" cy="398.96" r="11.33" style="fill: currentColor;isolation:isolate;opacity:.15;stroke-width:0"/><circle cx="26.45" cy="398.96" r="11.33" style="fill: currentColor;isolation:isolate;opacity:.15;stroke-width:0" transform="rotate(-1.15 26.406 397.376)"/><circle cx="154.15" cy="349.32" r="11.33" style="fill: currentColor;stroke-width:0"/><circle cx="128.07" cy="331.7" r="11.33" style="fill: currentColor;isolation:isolate;opacity:.5;stroke-width:0"/><circle cx="424.99" cy="94.02" r="11.33" style="fill: currentColor;isolation:isolate;opacity:.15;stroke-width:0"/><circle cx="398.01" cy="123.52" r="11.33" style="fill: currentColor;isolation:isolate;opacity:.5;stroke-width:0"/><circle cx="398.01" cy="167.4" r="11.33" style="fill: currentColor;isolation:isolate;opacity:.5;stroke-width:0"/><circle cx="360.6" cy="146.18" r="11.33" style="fill: currentColor;stroke-width:0"/><circle cx="343.33" cy="178.73" r="11.33" style="fill: currentColor;stroke-width:0"/><circle cx="383.26" cy="232.69" r="11.33" style="fill: currentColor;isolation:isolate;opacity:.5;stroke-width:0"/><circle cx="432" cy="191.5" r="11.33" style="fill: currentColor;isolation:isolate;opacity:.5;stroke-width:0"/><circle cx="450.89" cy="251.03" r="11.33" style="fill: currentColor;isolation:isolate;opacity:.15;stroke-width:0"/><circle cx="334.52" cy="271" r="11.33" style="fill: currentColor;stroke-width:0"/><circle cx="332" cy="211.29" r="11.33" style="fill: currentColor;stroke-width:0"/><circle cx="323.19" cy="151.57" r="11.33" style="fill: currentColor;stroke-width:0"/><circle cx="311.86" cy="112.19" r="11.33" style="fill: currentColor;stroke-width:0"/><circle cx="270.86" cy="122.19" r="11.33" style="fill:#7df032;stroke-width:0"/><circle cx="258.86" cy="147.19" r="11.33" style="fill:#7df032;stroke-width:0"/><circle cx="270.86" cy="173.19" r="11.33" style="fill:#7df032;stroke-width:0"/><circle cx="254.86" cy="198.2" r="11.33" style="fill:#7df032;stroke-width:0"/><circle cx="250.86" cy="232.2" r="11.33" style="fill:#7df032;stroke-width:0"/><circle cx="237.86" cy="260.2" r="11.33" style="fill:#7df032;stroke-width:0"/><circle cx="267.86" cy="285.2" r="11.33" style="fill:#7df032;stroke-width:0"/><circle cx="241.86" cy="285.2" r="11.33" style="fill:#7df032;stroke-width:0"/><circle cx="242.86" cy="313.2" r="11.33" style="fill:#7df032;stroke-width:0"/><circle cx="264.86" cy="334.2" r="11.33" style="fill:#7df032;stroke-width:0"/><circle cx="263.86" cy="363.21" r="11.33" style="fill:#7df032;stroke-width:0"/><circle cx="253.86" cy="392.21" r="11.33" style="fill:#7df032;stroke-width:0"/><circle cx="320.15" cy="310.16" r="11.33" style="fill: currentColor;stroke-width:0"/><circle cx="371.93" cy="289.61" r="11.33" style="fill: currentColor;stroke-width:0"/><circle cx="409.34" cy="271" r="11.33" style="fill: currentColor;isolation:isolate;opacity:.5;stroke-width:0"/><circle cx="420.67" cy="354.36" r="11.33" style="fill: currentColor;isolation:isolate;opacity:.15;stroke-width:0"/><circle cx="473.55" cy="383.32" r="11.33" style="fill: currentColor;isolation:isolate;opacity:.15;stroke-width:0"/><circle cx="386.68" cy="398.96" r="11.33" style="fill: currentColor;isolation:isolate;opacity:.5;stroke-width:0"/><circle cx="303.51" cy="349.32" r="11.33" style="fill: currentColor;stroke-width:0"/><circle cx="360.6" cy="331.7" r="11.33" style="fill: currentColor;stroke-width:0"/>
    </g>
    <g id="pic-2">
      <circle cx="250" cy="250" r="136.32" style="fill:none; stroke: currentColor; stroke-miterlimit:10;"/><g id="_Répétition_radiale_"><rect x="307.78" y="349.14" width="7.55" height="75.74" transform="translate(760.6 599.6) rotate(154.17)" style="fill:#7df032; stroke-width:0px;"/></g><g id="_Répétition_radiale_-2"><rect x="265.4" y="362.39" width="7.55" height="75.74" transform="translate(595.73 755.26) rotate(171.31)" style="fill:#7df032; stroke-width:0px;"/></g><g id="_Répétition_radiale_-3"><rect x="221.01" y="362.55" width="7.55" height="75.74" transform="translate(388.25 829.54) rotate(-171.54)" style="fill:#7df032; stroke-width:0px;"/></g><g id="_Répétition_radiale_-4"><rect x="178.53" y="349.63" width="7.55" height="75.74" transform="translate(179.31 815.72) rotate(-154.4)" style="fill:#7df032; stroke-width:0px;"/></g><g id="_Répétition_radiale_-5"><rect x="141.76" y="324.75" width="7.55" height="75.74" transform="translate(6.31 727.72) rotate(-137.26)" style="fill:#7df032; stroke-width:0px;"/></g><g id="_Répétition_radiale_-6"><rect x="113.95" y="290.15" width="7.55" height="75.74" transform="translate(-106.95 594.44) rotate(-120.12)" style="fill:#7df032; stroke-width:0px;"/></g><g id="_Répétition_radiale_-7"><rect x="97.57" y="248.88" width="7.55" height="75.74" transform="translate(-155.33 449.89) rotate(-102.97)" style="fill:#7df032; stroke-width:0px;"/></g><g id="_Répétition_radiale_-8"><rect x="94.09" y="204.63" width="7.55" height="75.74" transform="translate(-151.1 322.47) rotate(-85.83)" style="fill:#7df032; stroke-width:0px;"/></g><g id="_Répétition_radiale_-9"><rect x="103.8" y="161.3" width="7.55" height="75.74" transform="translate(-117.07 227.01) rotate(-68.69)" style="fill:#7df032; stroke-width:0px;"/></g><g id="_Répétition_radiale_-10"><rect x="125.86" y="122.77" width="7.55" height="75.74" transform="translate(-76.78 162.25) rotate(-51.54)" style="fill:#7df032; stroke-width:0px;"/></g><g id="_Répétition_radiale_-11"><rect x="158.29" y="92.45" width="7.55" height="75.74" transform="translate(-45.29 114.36) rotate(-34.4)" style="fill:#7df032; stroke-width:0px;"/></g><g id="_Répétition_radiale_-12"><rect x="198.21" y="73.04" width="7.55" height="75.74" transform="translate(-23.81 64.92) rotate(-17.26)" style="fill:#7df032; stroke-width:0px;"/></g><g id="_Répétition_radiale_-13"><rect x="242.09" y="66.26" width="7.55" height="75.74" transform="translate(-.21 .5) rotate(-.12)" style="fill:#7df032; stroke-width:0px;"/></g><g id="_Répétition_radiale_-14"><rect x="286.01" y="72.71" width="7.55" height="75.74" transform="translate(45.08 -80.01) rotate(17.03)" style="fill:#7df032; stroke-width:0px;"/></g><g id="_Répétition_radiale_-15"><rect x="326.08" y="91.82" width="7.55" height="75.74" transform="translate(129.78 -162.88) rotate(34.17)" style="fill:#7df032; stroke-width:0px;"/></g><g id="_Répétition_radiale_-16"><rect x="358.74" y="121.89" width="7.55" height="75.74" transform="translate(260.62 -223.07) rotate(51.31)" style="fill:#7df032; stroke-width:0px;"/></g><g id="_Répétition_radiale_-17"><rect x="381.08" y="160.26" width="7.55" height="75.74" transform="translate(427.81 -232.6) rotate(68.46)" style="fill:#7df032; stroke-width:0px;"/></g><g id="_Répétition_radiale_-18"><rect x="391.13" y="203.5" width="7.55" height="75.74" transform="translate(605.25 -170.89) rotate(85.6)" style="fill:#7df032; stroke-width:0px;"/></g><g id="_Répétition_radiale_-19"><rect x="387.98" y="247.79" width="7.55" height="75.74" transform="translate(756.77 -33.45) rotate(102.74)" style="fill:#7df032; stroke-width:0px;"/></g><g id="_Répétition_radiale_-20"><rect x="371.91" y="289.18" width="7.55" height="75.74" transform="translate(846.43 164.26) rotate(119.88)" style="fill:#7df032; stroke-width:0px;"/></g><g id="_Répétition_radiale_-21"><rect x="344.36" y="323.99" width="7.55" height="75.74" transform="translate(849.53 389.31) rotate(137.03)" style="fill:#7df032; stroke-width:0px;"/></g><g id="_Répétition_radiale_-22"><rect x="290.97" y="362.45" width="10.59" height="96.79" transform="translate(693.4 725.25) rotate(164.17)" style="fill:#fff; stroke: currentColor; stroke-miterlimit:10; stroke-width:1px;"/></g><g id="_Répétition_radiale_-23"><rect x="241.51" y="368.94" width="10.59" height="96.79" transform="translate(484.02 840.19) rotate(-178.69)" style="fill:#fff; stroke: currentColor; stroke-miterlimit:10; stroke-width:1px;"/></g><g id="_Répétition_radiale_-24"><rect x="192.33" y="360.56" width="10.59" height="96.79" transform="translate(255.66 859.44) rotate(-161.55)" style="fill:#fff; stroke: currentColor; stroke-miterlimit:10; stroke-width:1px;"/></g><g id="_Répétition_radiale_-25"><rect x="147.8" y="338.06" width="10.59" height="96.79" transform="translate(52.66 789.82) rotate(-144.41)" style="fill:#fff; stroke: currentColor; stroke-miterlimit:10; stroke-width:1px;"/></g><g id="_Répétition_radiale_-26"><rect x="111.88" y="303.44" width="10.59" height="96.79" transform="translate(-91.88 658.12) rotate(-127.26)" style="fill:#fff; stroke: currentColor; stroke-miterlimit:10; stroke-width:1px;"/></g><g id="_Répétition_radiale_-27"><rect x="87.77" y="259.76" width="10.59" height="96.79" transform="translate(-164.27 501.55) rotate(-110.12)" style="fill:#fff; stroke: currentColor; stroke-miterlimit:10; stroke-width:1px;"/></g><g id="_Répétition_radiale_-28"><rect x="77.6" y="210.92" width="10.59" height="96.79" transform="translate(-171.77 355.57) rotate(-92.98)" style="fill:#fff; stroke: currentColor; stroke-miterlimit:10; stroke-width:1px;"/></g><g id="_Répétition_radiale_-29"><rect x="82.27" y="161.25" width="10.59" height="96.79" transform="translate(-137.14 243.25) rotate(-75.83)" style="fill:#fff; stroke: currentColor; stroke-miterlimit:10; stroke-width:1px;"/></g><g id="_Répétition_radiale_-30"><rect x="101.38" y="115.17" width="10.59" height="96.79" transform="translate(-88.5 169.72) rotate(-58.69)" style="fill:#fff; stroke: currentColor; stroke-miterlimit:10; stroke-width:1px;"/></g><g id="_Répétition_radiale_-31"><rect x="133.23" y="76.76" width="10.59" height="96.79" transform="translate(-48.16 123.37) rotate(-41.55)" style="fill:#fff; stroke: currentColor; stroke-miterlimit:10; stroke-width:1px;"/></g><g id="_Répétition_radiale_-32"><rect x="174.98" y="49.45" width="10.59" height="96.79" transform="translate(-24.32 83.23) rotate(-24.41)" style="fill:#fff; stroke: currentColor; stroke-miterlimit:10; stroke-width:1px;"/></g><g id="_Répétition_radiale_-33"><rect x="222.92" y="35.66" width="10.59" height="96.79" transform="translate(-8.8 29.53) rotate(-7.26)" style="fill:#fff; stroke: currentColor; stroke-miterlimit:10; stroke-width:1px;"/></g><g id="_Répétition_radiale_-34"><rect x="272.8" y="36.61" width="10.59" height="96.79" transform="translate(18.71 -46.45) rotate(9.88)" style="fill:#fff; stroke: currentColor; stroke-miterlimit:10; stroke-width:1px;"/></g><g id="_Répétition_radiale_-35"><rect x="320.19" y="52.23" width="10.59" height="96.79" transform="translate(81.25 -136.89) rotate(27.02)" style="fill:#fff; stroke: currentColor; stroke-miterlimit:10; stroke-width:1px;"/></g><g id="_Répétition_radiale_-36"><rect x="360.86" y="81.11" width="10.59" height="96.79" transform="translate(193.73 -218.51) rotate(44.17)" style="fill:#fff; stroke: currentColor; stroke-miterlimit:10; stroke-width:1px;"/></g><g id="_Répétition_radiale_-37"><rect x="391.22" y="120.7" width="10.59" height="96.79" transform="translate(354.48 -259.91) rotate(61.31)" style="fill:#fff; stroke: currentColor; stroke-miterlimit:10; stroke-width:1px;"/></g><g id="_Répétition_radiale_-38"><rect x="408.55" y="167.48" width="10.59" height="96.79" transform="translate(542.5 -232.81) rotate(78.45)" style="fill:#fff; stroke: currentColor; stroke-miterlimit:10; stroke-width:1px;"/></g><g id="_Répétition_radiale_-39"><rect x="411.33" y="217.29" width="10.59" height="96.79" transform="translate(721.66 -123.06) rotate(95.59)" style="fill:#fff; stroke: currentColor; stroke-miterlimit:10; stroke-width:1px;"/></g><g id="_Répétition_radiale_-40"><rect x="399.3" y="265.71" width="10.59" height="96.79" transform="translate(850.68 62.35) rotate(112.74)" style="fill:#fff; stroke: currentColor; stroke-miterlimit:10; stroke-width:1px;"/></g><g id="_Répétition_radiale_-41"><rect x="373.54" y="308.43" width="10.59" height="96.79" transform="translate(895.57 294.9) rotate(129.88)" style="fill:#fff; stroke: currentColor; stroke-miterlimit:10; stroke-width:1px;"/></g><g id="_Répétition_radiale_-42"><rect x="336.33" y="341.66" width="10.59" height="96.79" transform="translate(840.52 531.32) rotate(147.02)" style="stroke-miterlimit:10; stroke-width:1px;"/></g>
    </g>
    <g id="pic-3">
      <path d="M9.54,292.12s8.78-122.13,29.32-122.13,23.1,150.77,44.18,150.77,19.45-199.63,51.88-199.63,28.42,229.11,51.65,229.11,14.27-142.35,35.89-142.35,10.27,170.99,38.91,170.99,35.13-234.16,64.85-234.16,22.7,184.46,45.93,184.46,18.37-143.19,48.09-143.19,23.24,150.77,44.85,150.77,17.83-44.64,25.4-44.64" style="fill:#7df032; opacity:.5; stroke-width:0px;"/><path d="M9.54,292.3s8.78-78.36,29.32-78.36,23.1,96.73,44.18,96.73,19.45-128.07,51.88-128.07,28.42,146.99,51.65,146.99,14.27-91.33,35.89-91.33,10.27,109.7,38.91,109.7,35.13-150.23,64.85-150.23,22.7,118.35,45.93,118.35,18.37-91.87,48.09-91.87,23.24,96.73,44.85,96.73,17.83-28.64,25.4-28.64" style="fill: currentColor; opacity:.83; stroke-width:0px;"/><path d="M9.51,292.1s8.78-97.59,29.32-97.59,23.1,120.48,44.18,120.48,19.45-159.52,51.88-159.52,28.42,183.07,51.65,183.07,14.27-113.75,35.89-113.75,10.27,136.63,38.91,136.63,35.13-187.11,64.85-187.11,22.7,147.4,45.93,147.4,18.37-114.42,48.09-114.42,23.24,120.48,44.85,120.48,17.83-35.67,25.4-35.67" style="fill: currentColor; opacity:.5; stroke-width:0px;"/>
    </g>
    <g id="pic-4">
    <circle cx="252.48" cy="243.62" r="101.87" style="fill:none; stroke:currentColor; stroke-miterlimit:10;"/><circle cx="252.48" cy="243.62" r="191.74" style="fill:none; stroke: currentColor; stroke-miterlimit:10;"/><circle cx="252.48" cy="243.62" r="192.26" style="fill:none; stroke: currentColor; stroke-miterlimit:10; stroke-width:2px;"/><circle cx="252.48" cy="243.62" r="163.44" style="fill:none; stroke:currentColor; stroke-miterlimit:10;"/><circle cx="252.48" cy="243.62" r="221.62" style="fill:none; stroke: currentColor; stroke-miterlimit:10;"/><circle cx="252.48" cy="243.62" r="199.4" style="fill:none; stroke: currentColor; stroke-miterlimit:10; stroke-width:2px;"/><circle cx="252.48" cy="243.62" r="222.38" style="fill:none; stroke: currentColor; stroke-miterlimit:10; stroke-width:2px;"/><circle cx="252.48" cy="243.62" r="112.6" style="fill:none; stroke:currentColor; stroke-miterlimit:10; stroke-width:2px;"/><circle cx="252.48" cy="243.62" r="78.81" style="fill:none; stroke: currentColor; stroke-miterlimit:10;"/><path d="M236.16,222.56c.17.29,6.09-4.01,6.3-3.64.46.79-12.5,9.42-12.18,9.97.5.87,19.96-12.9,20.56-11.87s-23.87,15.81-23.2,16.97c.93,1.6,28.03-18.31,28.95-16.71s-30.93,19.63-30.19,20.9c.87,1.51,33.25-21.92,34.43-19.88.92,1.59-35.97,22.16-34.95,23.92,1.23,2.12,37.46-24.52,38.71-22.35,1.18,2.04-39.6,24.4-38.64,26.07,1.17,2.03,40.6-26.28,41.83-24.15,1.35,2.33-42.75,25.09-41.3,27.59s42.53-28,44.02-25.41c1.17,2.03-44.73,25.67-43.2,28.32,1.12,1.93,43.85-28.67,45.3-26.16,1.53,2.64-45.74,26.22-44.19,28.9,1.17,2.03,44.94-28.41,46.01-26.56,1.23,2.14-46.14,26.48-44.55,29.23,1.37,2.37,44.6-29.29,46.14-26.64,1.17,2.03-45.78,26.77-44.55,28.9,1.37,2.38,44.37-28.75,45.72-26.4,1.09,1.9-45.02,26.4-43.65,28.77s43.32-28.12,44.66-25.79c1.17,2.03-43.61,25.81-42.49,27.76,1.45,2.52,42.11-26.62,43.11-24.89,1.08,1.87-42.28,24.05-40.84,26.54,1.16,2.01,40.04-25.64,41.13-23.75s-39.53,23.12-38.2,25.41c1.2,2.07,37.22-23.66,38.16-22.03,1.05,1.83-35.24,21.59-34.08,23.6.79,1.36,32.47-20.91,33.41-19.29.79,1.37-29.96,18.84-29.2,20.16s27.14-17.34,27.86-16.09c.77,1.33-23.48,14.9-22.71,16.23.65,1.13,19.58-12.86,20.26-11.69" style="fill:none; stroke:#7df032; stroke-linecap:round; stroke-linejoin:round;"/>
    </g>
    <g id="pic-5">
      <path d="M21.58 291.93h24v24h-24z" style="fill: currentColor;0;stroke-width:0"/><path d="M21.58 322.93h24v24h-24z" style="fill: currentColor;0;opacity:.5;stroke-width:0"/><path d="M52.58 291.93h24v24h-24z" style="fill: currentColor;0;stroke-width:0"/><path d="M52.58 322.93h24v24h-24z" style="fill: currentColor;0;opacity:.5;stroke-width:0"/><path d="M52.58 260.92h24v24h-24zM83.59 291.93h24v24h-24z" style="fill: currentColor;0;stroke-width:0"/><path d="M83.59 322.93h24v24h-24z" style="fill: currentColor;0;opacity:.5;stroke-width:0"/><path d="M83.59 260.92h24v24h-24zM114.59 291.93h24v24h-24z" style="fill: currentColor;0;stroke-width:0"/><path d="M114.59 322.93h24v24h-24z" style="fill: currentColor;0;opacity:.5;stroke-width:0"/><path d="M114.59 260.92h24v24h-24zM114.59 229.92h24v24h-24z" style="fill: currentColor;0;stroke-width:0"/><path d="M114.59 198.92h24v24h-24z" style="fill:#7df032;stroke-width:0"/><path d="M176.59 291.93h24v24h-24z" style="fill: currentColor;0;stroke-width:0"/><path d="M176.59 322.93h24v24h-24z" style="fill: currentColor;0;opacity:.5;stroke-width:0"/><path d="M176.59 260.92h24v24h-24zM176.59 229.92h24v24h-24zM176.59 198.92h24v24h-24zM176.59 167.92h24v24h-24z" style="fill: currentColor;0;stroke-width:0"/><path d="M176.59 166.92h24v24h-24z" style="fill: currentColor;0;stroke-width:0"/><path d="M207.59 291.93h24v24h-24z" style="fill: currentColor;0;stroke-width:0" transform="rotate(-20.23 219.565 303.897)"/><path d="M207.59 322.93h24v24h-24z" style="fill: currentColor;0;opacity:.5;stroke-width:0"/><path d="M207.59 260.92h24v24h-24zM207.59 229.92h24v24h-24zM207.59 198.92h24v24h-24zM207.59 167.92h24v24h-24z" style="fill: currentColor;0;stroke-width:0"/><path d="M207.59 166.92h24v24h-24zM269.6 291.93h24v24h-24z" style="fill: currentColor;0;stroke-width:0"/><path d="M269.6 322.93h24v24h-24z" style="fill: currentColor;0;opacity:.5;stroke-width:0"/><path d="M300.6 291.93h24v24h-24z" style="fill: currentColor;0;stroke-width:0"/><path d="M300.6 322.93h24v24h-24z" style="fill: currentColor;0;opacity:.5;stroke-width:0" transform="rotate(-77.27 312.617 334.932)"/><path d="M269.6 260.92h24v24h-24zM331.6 291.93h24v24h-24z" style="fill: currentColor;0;stroke-width:0"/><path d="M331.6 322.93h24v24h-24z" style="fill: currentColor;0;opacity:.5;stroke-width:0"/><path d="M300.6 260.92h24v24h-24zM422.61 291.93h24v24h-24z" style="fill: currentColor;0;stroke-width:0"/><path d="M422.61 322.93h24v24h-24z" style="fill: currentColor;0;opacity:.5;stroke-width:0"/><path d="M453.61 291.93h24v24h-24z" style="fill: currentColor;0;stroke-width:0"/><path d="M453.61 322.93h24v24h-24z" style="fill: currentColor;0;opacity:.5;stroke-width:0"/><path d="M422.61 260.92h24v24h-24zM269.6 229.92h24v24h-24zM269.6 198.92h24v24h-24z" style="fill: currentColor;0;stroke-width:0"/><path d="M269.6 167.92h24v24h-24zM347.27 159.93h24v24h-24z" style="fill:#7df032;stroke-width:0"/><path d="M331.6 93.93h24v24h-24z" style="fill:#7df032;stroke-width:0" transform="rotate(-67.59 343.62 105.92)"/><path d="M238.6 291.93h24v24h-24z" style="fill: currentColor;0;stroke-width:0"/><path d="M238.6 322.93h24v24h-24z" style="fill: currentColor;0;opacity:.5;stroke-width:0"/><path d="M238.6 260.92h24v24h-24zM238.6 229.92h24v24h-24zM238.6 198.92h24v24h-24z" style="fill: currentColor;0;stroke-width:0"/><path d="M176.59 135.92h24v24h-24z" style="fill:#7df032;stroke-width:0" transform="rotate(-18.43 188.564 147.91)"/><path d="M145.59 291.93h24v24h-24z" style="fill: currentColor;0;stroke-width:0"/><path d="M145.59 322.93h24v24h-24z" style="fill: currentColor;0;opacity:.5;stroke-width:0"/><path d="M145.59 260.92h24v24h-24z" style="fill: currentColor;0;stroke-width:0"/><path d="M145.59 229.92h24v24h-24z" style="fill: currentColor;0;stroke-width:0" transform="rotate(-83.38 157.587 241.923)"/><path d="M52.58 229.92h24v24h-24z" style="fill:#7df032;stroke-width:0"/><path d="M361.6 291.93h24v24h-24z" style="fill: currentColor;0;stroke-width:0"/><path d="M361.6 322.93h24v24h-24z" style="fill: currentColor;0;opacity:.5;stroke-width:0"/><path d="M361.6 260.92h24v24h-24zM361.6 229.92h24v24h-24zM392.61 291.93h24v24h-24z" style="fill: currentColor;0;stroke-width:0"/><path d="M392.61 322.93h24v24h-24z" style="fill: currentColor;0;opacity:.5;stroke-width:0"/><path d="M21.58 353.93h24v24h-24zM52.58 353.93h24v24h-24zM83.59 353.93h24v24h-24zM114.59 353.93h24v24h-24zM176.59 353.93h24v24h-24zM207.59 353.93h24v24h-24zM269.6 353.93h24v24h-24zM300.6 353.93h24v24h-24zM331.6 353.93h24v24h-24z" style="fill: currentColor;0;opacity:.3;stroke-width:0"/><path d="M422.61 353.93h24v24h-24z" style="fill: currentColor;0;opacity:.3;stroke-width:0" transform="rotate(-74.75 434.613 365.932)"/><path d="M453.61 353.93h24v24h-24zM238.6 353.93h24v24h-24zM145.59 353.93h24v24h-24zM361.6 353.93h24v24h-24zM392.61 353.93h24v24h-24z" style="fill: currentColor;0;opacity:.3;stroke-width:0"/><path d="M21.58 384.93h24v24h-24zM52.58 384.93h24v24h-24zM83.59 384.93h24v24h-24zM114.59 384.93h24v24h-24zM176.59 384.93h24v24h-24zM207.59 384.93h24v24h-24zM269.6 384.93h24v24h-24zM300.6 384.93h24v24h-24zM331.6 384.93h24v24h-24zM422.61 384.93h24v24h-24z" style="fill: currentColor;0;opacity:.15;stroke-width:0"/><path d="M453.61 384.93h24v24h-24z" style="fill: currentColor;0;opacity:.15;stroke-width:0" transform="rotate(-86 465.571 396.931)"/><path d="M238.6 384.93h24v24h-24zM145.59 384.93h24v24h-24zM361.6 384.93h24v24h-24zM392.61 384.93h24v24h-24z" style="fill: currentColor;0;opacity:.15;stroke-width:0"/><path d="M392.61 260.92h24v24h-24zM392.61 229.92h24v24h-24z" style="fill: currentColor;0;stroke-width:0"/><path d="M392.61 198.92h24v24h-24z" style="fill:#7df032;stroke-width:0"/>
    </g>
    <g id="pic-6">
      <polygon points="24.11 350.07 290.07 350.07 157.09 85.94 24.11 350.07" style="fill:none; stroke:#7df032; stroke-miterlimit:10; stroke-width:4px;"/><polygon points="94.89 268.18 336.67 383.93 330.74 85.94 94.89 268.18" style="fill:currentColor; opacity:.22; stroke-width:0px;"/><polygon points="197.45 233.4 395.48 414.06 475.89 127.07 197.45 233.4" style="fill:currentColor; opacity:.22; stroke-width:0px;"/>
    </g>
    <g id="pic-7">
      <circle cx="128.74" cy="250" r="56.71" style="fill:none;stroke: currentColor;stroke-miterlimit:10;stroke-width:2px"/><circle cx="153.84" cy="250" r="81.81" style="fill:none;isolation:isolate;opacity:.8;stroke: currentColor;stroke-miterlimit:10;stroke-width:2px"/><circle cx="185.09" cy="250" r="113.06" style="fill:none;isolation:isolate;opacity:.6;stroke: currentColor;stroke-miterlimit:10;stroke-width:2px"/><circle cx="211.84" cy="250" r="139.81" style="fill:none;isolation:isolate;opacity:.4;stroke: currentColor;stroke-miterlimit:10;stroke-width:2px"/><circle cx="242.84" cy="250" r="170.81" style="fill:none;isolation:isolate;opacity:.2;stroke: currentColor;stroke-miterlimit:10;stroke-width:2px"/><circle cx="71.5" cy="251.51" r="27.5" style="fill:#7df032;stroke-width:0"/><path d="M71.5 251.51H456" style="fill:none;stroke:#7df032;stroke-miterlimit:10;stroke-width:3px"/>
    </g>
    <g id="jlb-logo">
      <path d="M0 0h160v160H0z" style="fill:#7df032;stroke: #000;stroke-width:1px"/>
      <circle cx="120.8" cy="62.9" r="14.8" style="fill: #000;stroke-width:0"/>
      <circle cx="39.2" cy="97.1" r="14.8" style="fill: #000;stroke-width:0"/>
      <path d="M65.4 81.2h26.7v17.2H65.4z" style="fill: #000;stroke-width:0"/>
    </g>
    <g id="sound-on">
      <path style="fill: currentColor" d="M2 16.0001H5.88889L11.1834 20.3319C11.2727 20.405 11.3846 20.4449 11.5 20.4449C11.7761 20.4449 12 20.2211 12 19.9449V4.05519C12 3.93977 11.9601 3.8279 11.887 3.73857C11.7121 3.52485 11.3971 3.49335 11.1834 3.66821L5.88889 8.00007H2C1.44772 8.00007 1 8.44778 1 9.00007V15.0001C1 15.5524 1.44772 16.0001 2 16.0001ZM23 12C23 15.292 21.5539 18.2463 19.2622 20.2622L17.8445 18.8444C19.7758 17.1937 21 14.7398 21 12C21 9.26016 19.7758 6.80629 17.8445 5.15557L19.2622 3.73779C21.5539 5.75368 23 8.70795 23 12ZM18 12C18 10.0883 17.106 8.38548 15.7133 7.28673L14.2842 8.71584C15.3213 9.43855 16 10.64 16 12C16 13.36 15.3213 14.5614 14.2842 15.2841L15.7133 16.7132C17.106 15.6145 18 13.9116 18 12Z"></path>
    </g>
    <g id="sound-off">
      <path style="fill: currentColor" d="M10 7.22056L6.60282 10.0001H3V14.0001H6.60282L10 16.7796V7.22056ZM5.88889 16.0001H2C1.44772 16.0001 1 15.5524 1 15.0001V9.00007C1 8.44778 1.44772 8.00007 2 8.00007H5.88889L11.1834 3.66821C11.3971 3.49335 11.7121 3.52485 11.887 3.73857C11.9601 3.8279 12 3.93977 12 4.05519V19.9449C12 20.2211 11.7761 20.4449 11.5 20.4449C11.3846 20.4449 11.2727 20.405 11.1834 20.3319L5.88889 16.0001ZM20.4142 12.0001L23.9497 15.5356L22.5355 16.9498L19 13.4143L15.4645 16.9498L14.0503 15.5356L17.5858 12.0001L14.0503 8.46454L15.4645 7.05032L19 10.5859L22.5355 7.05032L23.9497 8.46454L20.4142 12.0001Z"></path>
    </g>
    <g id="compo">      
      <rect width="200" height="200" style="fill:#fff; opacity:0; stroke-width:0px;"/>
      <rect x="134.92" y="50" width="57.19" height="105.22" style="fill:currentColor; opacity:.3; stroke-width:0px;"/>
      <circle cx="113.12" cy="76.57" r="31.79" style="fill:currentColor; opacity:.3; stroke-width:0px;"/>
      <rect x="22.82" y="98.95" width="36.89" height="57.19" transform="translate(-92.51 118.95) rotate(-68.39)" style="fill:#70f906; stroke-width:0px;"/>
    </g>
    <g id="design">
      <rect width="200" height="200" style="fill:#fff; opacity:0; stroke-width:0px;"/>
      <rect x="131.82" y="107.01" width="50.52" height="50.52" transform="translate(40.39 -36.7) rotate(15.27)" style="fill:currentColor; opacity:.2; stroke-width:0px;"/>
      <path d="M24.11,30.36c-2.5,0-4.95.19-7.35.55v98.03c2.4.36,4.85.55,7.35.55,27.37,0,49.56-22.19,49.56-49.56S51.49,30.36,24.11,30.36Z" style="fill:#7df032; stroke-width:0px;"/>
      <circle cx="65.29" cy="135.21" r="28.08" style="fill:currentColor; opacity:.2; stroke-width:0px;"/>
    </g>
    <g id="interact">
      <rect width="200" height="200" style="fill:#fff; opacity:0; stroke-width:0px;"/>
      <polygon points="23.98 179.25 116.47 146.45 15.61 147.47 23.98 179.25" style="fill:currentColor; opacity:.3; stroke-width:0px;"/>
      <circle cx="152.35" cy="138.72" r="32.04" style="fill:#7df032; stroke-width:0px;"/>
      <rect x="93.06" y="25.26" width="54.49" height="107.43" style="fill:currentColor; opacity:.2; stroke-width:0px;"/>
    </g>
    <g id="info">
      <rect width="200" height="200" style="fill:#fff; opacity:0; stroke-width:0px;"/>
      <rect x="19.64" y="133.87" width="76.52" height="29.02" transform="translate(30.35 -8.5) rotate(11.36)" style="fill:currentColor; opacity:.5; stroke-width:0px;"/>
      <rect x="103.84" y="90.65" width="76.52" height="29.02" style="fill:currentColor; opacity:.2; stroke-width:0px;"/>
      <rect x="103.84" y="33.83" width="76.52" height="29.02" style="fill:currentColor; opacity:.5; stroke-width:0px;"/>
      <circle cx="57.9" cy="77.57" r="21.62" style="fill:#7df032; stroke-width:0px;"/>
    </g>
    <g id="sound">
      <rect width="200" height="200" style="fill:#fff; opacity:0; stroke-width:0px;"/>
      <circle cx="43.01" cy="140.85" r="15.4" style="fill:#7df032; stroke-width:0px;"/>
      <circle cx="111.83" cy="83.7" r="33.22" style="fill:currentColor; opacity:.5; stroke-width:0px;"/>
      <polyline points="116.71 172.37 185.81 172.37 151.26 25.07 116.71 170.48" style="fill:currentColor; opacity:.2; stroke-width:0px;"/>
    </g>
    <g id="mix">
      <rect width="200" height="200" style="fill:#fff; opacity:0; stroke-width:0px;"/>
      <rect x="149.95" y="41.4" width="34.65" height="63.76" style="fill:currentColor; stroke-width:0px; opacity:.2;"/>
      <rect x="122.87" y="124.4" width="35.45" height="35.45" transform="translate(-40.1 227.68) rotate(-70.65)" style="fill:#7df032; stroke-width:0px;"/>
      <rect x="81.44" y="78.75" width="34.65" height="22.35" style="fill:currentColor; stroke-width:0px; opacity:.3;"/>
      <rect x="15.39" y="78.75" width="34.65" height="22.35" style="fill:currentColor; stroke-width:0px; opacity:.5;"/>
    </g>
  </defs>
</svg>