<!-- SVG DEFINITIONS -->
<svg xmlns="http://www.w3.org/2000/svg" class="svg-library">
  <defs>

    <g id="logo">
      <rect x="45.04" y="3.86" width="22.99" height="42.3" style="fill:#F1D648;"/>
      <rect x="154.37" y="3.86" width="22.99" height="42.3" style="fill:#F1D648;"/>
      <rect x="286.42" y="3.86" width="22.99" height="42.3" style="fill:#F1D648;"/>
      <rect x="330.29" y="20.55" width="22.99" height="22.99" style="fill:#F1D648;"/>
      <rect y="28.64" width="22.99" height="14.83" style="fill:#F1D648;"/>
      <rect x="240.97" y="28.64" width="22.99" height="14.83" style="fill:#F1D648;"/>
      <rect x="197.15" y="28.64" width="22.99" height="14.83" style="fill:#F1D648;"/>
      <circle cx="122.53" cy="12.78" r="12.78" style="fill:#F1D648;"/>
      <circle cx="395.08" cy="26.23" r="22.61" style="fill:#F1D648;"/>
    </g>
    <g id="jlb-logo">
      <path d="M0 0h160v160H0z" style="fill:#f1d648;"/>
      <circle cx="120.8" cy="62.9" r="14.8" style="fill: #000;stroke-width:0"/>
      <circle cx="39.2" cy="97.1" r="14.8" style="fill: #000;stroke-width:0"/>
      <path d="M65.4 81.2h26.7v17.2H65.4z" style="fill: #000;stroke-width:0"/>
    </g>
    <g id="sound-on">
      <path style="fill: currentColor" d="M2 16.0001H5.88889L11.1834 20.3319C11.2727 20.405 11.3846 20.4449 11.5 20.4449C11.7761 20.4449 12 20.2211 12 19.9449V4.05519C12 3.93977 11.9601 3.8279 11.887 3.73857C11.7121 3.52485 11.3971 3.49335 11.1834 3.66821L5.88889 8.00007H2C1.44772 8.00007 1 8.44778 1 9.00007V15.0001C1 15.5524 1.44772 16.0001 2 16.0001ZM23 12C23 15.292 21.5539 18.2463 19.2622 20.2622L17.8445 18.8444C19.7758 17.1937 21 14.7398 21 12C21 9.26016 19.7758 6.80629 17.8445 5.15557L19.2622 3.73779C21.5539 5.75368 23 8.70795 23 12ZM18 12C18 10.0883 17.106 8.38548 15.7133 7.28673L14.2842 8.71584C15.3213 9.43855 16 10.64 16 12C16 13.36 15.3213 14.5614 14.2842 15.2841L15.7133 16.7132C17.106 15.6145 18 13.9116 18 12Z"></path>
    </g>
    <g id="sound-off">
      <path style="fill: currentColor" d="M10 7.22056L6.60282 10.0001H3V14.0001H6.60282L10 16.7796V7.22056ZM5.88889 16.0001H2C1.44772 16.0001 1 15.5524 1 15.0001V9.00007C1 8.44778 1.44772 8.00007 2 8.00007H5.88889L11.1834 3.66821C11.3971 3.49335 11.7121 3.52485 11.887 3.73857C11.9601 3.8279 12 3.93977 12 4.05519V19.9449C12 20.2211 11.7761 20.4449 11.5 20.4449C11.3846 20.4449 11.2727 20.405 11.1834 20.3319L5.88889 16.0001ZM20.4142 12.0001L23.9497 15.5356L22.5355 16.9498L19 13.4143L15.4645 16.9498L14.0503 15.5356L17.5858 12.0001L14.0503 8.46454L15.4645 7.05032L19 10.5859L22.5355 7.05032L23.9497 8.46454L20.4142 12.0001Z"></path>
    </g>
    <g id="compo">      
      <rect width="200" height="200" style="fill:#fff; opacity:0; stroke-width:0px;"/>
      <rect x="134.92" y="50" width="57.19" height="105.22" style="fill:currentColor; opacity:.3; stroke-width:0px;"/>
      <circle cx="113.12" cy="76.57" r="31.79" style="fill:currentColor; opacity:.3; stroke-width:0px;"/>
      <rect x="22.82" y="98.95" width="36.89" height="57.19" transform="translate(-92.51 118.95) rotate(-68.39)" style="fill:#f1d648; stroke-width:0px;"/>
    </g>
    <g id="design">
      <rect width="200" height="200" style="fill:#fff; opacity:0; stroke-width:0px;"/>
      <rect x="131.82" y="107.01" width="50.52" height="50.52" transform="translate(40.39 -36.7) rotate(15.27)" style="fill:currentColor; opacity:.2; stroke-width:0px;"/>
      <path d="M24.11,30.36c-2.5,0-4.95.19-7.35.55v98.03c2.4.36,4.85.55,7.35.55,27.37,0,49.56-22.19,49.56-49.56S51.49,30.36,24.11,30.36Z" style="fill:#f1d648; stroke-width:0px;"/>
      <circle cx="65.29" cy="135.21" r="28.08" style="fill:currentColor; opacity:.2; stroke-width:0px;"/>
    </g>
    <g id="interact">
      <rect width="200" height="200" style="fill:#fff; opacity:0; stroke-width:0px;"/>
      <polygon points="23.98 179.25 116.47 146.45 15.61 147.47 23.98 179.25" style="fill:currentColor; opacity:.3; stroke-width:0px;"/>
      <circle cx="152.35" cy="138.72" r="32.04" style="fill:#f1d648; stroke-width:0px;"/>
      <rect x="93.06" y="25.26" width="54.49" height="107.43" style="fill:currentColor; opacity:.2; stroke-width:0px;"/>
    </g>
    <g id="info">
      <rect width="200" height="200" style="fill:#fff; opacity:0; stroke-width:0px;"/>
      <rect x="19.64" y="133.87" width="76.52" height="29.02" transform="translate(30.35 -8.5) rotate(11.36)" style="fill:currentColor; opacity:.5; stroke-width:0px;"/>
      <rect x="103.84" y="90.65" width="76.52" height="29.02" style="fill:currentColor; opacity:.2; stroke-width:0px;"/>
      <rect x="103.84" y="33.83" width="76.52" height="29.02" style="fill:currentColor; opacity:.5; stroke-width:0px;"/>
      <circle cx="57.9" cy="77.57" r="21.62" style="fill:#f1d648; stroke-width:0px;"/>
    </g>
    <g id="sound">
      <rect width="200" height="200" style="fill:#fff; opacity:0; stroke-width:0px;"/>
      <circle cx="43.01" cy="140.85" r="15.4" style="fill:#f1d648; stroke-width:0px;"/>
      <circle cx="111.83" cy="83.7" r="33.22" style="fill:currentColor; opacity:.5; stroke-width:0px;"/>
      <path d="M143.81,75.29l-49.52,84.62c23.37,13.67,53.39,5.82,67.07-17.55,13.67-23.37,5.82-53.39-17.55-67.07Z" style="fill:currentColor; opacity:.3; stroke-width:0px;"/>
    </g>
    <g id="mix">
      <rect width="200" height="200" style="fill:#fff; opacity:0; stroke-width:0px;"/>
      <rect x="149.95" y="41.4" width="34.65" height="63.76" style="fill:currentColor; stroke-width:0px; opacity:.2;"/>
      <rect x="122.87" y="124.4" width="35.45" height="35.45" transform="translate(-40.1 227.68) rotate(-70.65)" style="fill:#f1d648; stroke-width:0px;"/>
      <rect x="81.44" y="78.75" width="34.65" height="22.35" style="fill:currentColor; stroke-width:0px; opacity:.3;"/>
      <rect x="15.39" y="78.75" width="34.65" height="22.35" style="fill:currentColor; stroke-width:0px; opacity:.5;"/>
    </g>
    <g id="play">
      <path d="M16.3944 12.0001L10 7.7371V16.263L16.3944 12.0001ZM19.376 12.4161L8.77735 19.4818C8.54759 19.635 8.23715 19.5729 8.08397 19.3432C8.02922 19.261 8 19.1645 8 19.0658V4.93433C8 4.65818 8.22386 4.43433 8.5 4.43433C8.59871 4.43433 8.69522 4.46355 8.77735 4.5183L19.376 11.584C19.6057 11.7372 19.6678 12.0477 19.5146 12.2774C19.478 12.3323 19.4309 12.3795 19.376 12.4161Z"></path>
    </g>
    <g id="pause">
      <path d="M6 5H8V19H6V5ZM16 5H18V19H16V5Z"></path>
    </g>
  </defs>
</svg>