<?xml version="1.0" encoding="UTF-8"?><svg id="Calque_1" xmlns="http://www.w3.org/2000/svg" width="110.17" height="47.81" viewBox="0 0 110.17 47.81"><path d="M.5,13.47s2.64,25.71,5.93,25.71,2.2-17.8,6.15-17.8,2.64,25.93,6.37,25.93S20.06.5,24.89.5s1.98,38.46,6.37,38.46,1.98-30.04,5.93-30.04,2.86,26.53,6.37,26.53,1.98-16.04,5.49-16.04,2.2,13.63,6.15,13.63,2.64-28.57,6.15-28.57,2.64,37.14,6.15,37.14,2.86-32.68,6.59-32.68,1.74,27.63,5.48,27.63S81.82,1.82,85.99,1.82s1.76,43.52,6.37,43.52,1.98-34.29,5.93-34.29,2.42,25.71,6.15,25.71,2.2-23.52,5.71-23.52" style="fill:none; stroke:#000; stroke-miterlimit:10;"/></svg>